<?xml version="1.0" encoding="UTF-8" standalone="no"?>
<!DOCTYPE svg PUBLIC "-//W3C//DTD SVG 1.1//EN" "http://www.w3.org/Graphics/SVG/1.1/DTD/svg11.dtd">
<svg width="100%" height="100%" viewBox="0 0 800 800" version="1.1" xmlns="http://www.w3.org/2000/svg" xmlns:xlink="http://www.w3.org/1999/xlink" xml:space="preserve" xmlns:serif="http://www.serif.com/" style="fill-rule:evenodd;clip-rule:evenodd;stroke-linejoin:round;stroke-miterlimit:2;">
    <g transform="matrix(1,0,0,1,-2083,-4232)">
        <g transform="matrix(2.02015,0,0,2.02017,1796.24,3675.9)">
            <rect x="142.327" y="275.741" width="396.011" height="396.011" style="fill:none;"/>
            <g transform="matrix(0.495014,0,0,0.495007,-1818.69,-130.418)">
                <circle cx="4361.54" cy="1220.52" r="308.919" style="fill:url(#_Linear1);"/>
            </g>
            <g transform="matrix(0.495014,0,0,0.495007,25.6434,-1819.6)">
                <path d="M630.393,4342.19C603.297,4348.48 580.023,4380.49 590.382,4445.75C595.022,4474.98 601.167,4508.4 607.992,4543.18C557.396,4580.52 505.579,4623.16 501.265,4694.33C495.214,4794.18 588.419,4836.18 664.311,4812.28C665.597,4818.8 666.639,4824.38 667.402,4828.86C670.946,4849.74 661.256,4866.06 642.059,4873.83C619.571,4882.94 585.954,4881.32 545.36,4865.64C539.64,4863.43 533.202,4866.28 530.992,4872C528.781,4877.72 531.631,4884.16 537.352,4886.37C636.438,4924.65 699.444,4884.82 689.31,4825.15C688.366,4819.58 686.991,4812.35 685.262,4803.74C710.663,4790.82 732.499,4769.5 745.549,4739.43C766.494,4691.16 743.825,4644.88 708.971,4621.38C689.092,4607.98 665.373,4602.14 643.546,4606.93C639.803,4588.9 636.096,4570.74 632.536,4552.84L632.837,4552.47C639.227,4547.78 645.504,4543.14 651.554,4538.48C691.459,4507.76 721.076,4475.75 715.38,4430.61C707.956,4371.79 670.838,4340.88 640.429,4341.02C639.516,4341.02 638.603,4341.06 637.694,4341.11C637.043,4341.08 636.389,4341.05 635.731,4341.02C633.815,4340.96 631.995,4341.39 630.393,4342.19ZM613.428,4570.53C601.352,4581.16 588.492,4592.73 576.914,4605.83C552.976,4632.92 534.564,4666.9 542.858,4713.9C548.266,4744.55 561.48,4765.39 578.251,4778.27C602.902,4797.19 634.804,4798.87 658.119,4790.39C658.659,4790.19 659.198,4789.99 659.739,4789.78C651.809,4751.65 639.682,4696.48 627.333,4637.85C586.131,4663.1 591.36,4704.47 591.36,4704.47C592.209,4710.54 587.968,4716.16 581.895,4717.01C575.821,4717.86 570.201,4713.62 569.352,4707.54C569.352,4707.54 560.325,4647.37 622.55,4615C619.47,4600.21 616.408,4585.32 613.428,4570.53ZM680.115,4778.72C709.447,4757.95 730.846,4719.6 712.832,4680.67C700.798,4654.66 686.282,4641.39 672.8,4635.16C663.347,4630.8 654.642,4630.02 648.429,4630.29C660.283,4686.66 672.015,4740.13 680.115,4778.72ZM637.845,4363.4C629.458,4364.39 622.041,4369.83 617.079,4379.54C610.133,4393.14 607.821,4413.86 612.33,4442.26C616.428,4468.09 621.704,4497.18 627.583,4527.58C635.618,4521.1 649.596,4508.55 661.152,4491.54C672.27,4475.18 681.253,4454.59 679.619,4431.18C676.351,4384.34 662.597,4365.52 637.845,4363.4Z" style="fill:white;"/>
            </g>
        </g>
    </g>
    <defs>
        <linearGradient id="_Linear1" x1="0" y1="0" x2="1" y2="0" gradientUnits="userSpaceOnUse" gradientTransform="matrix(3.60471e-12,617.839,-617.839,3.60471e-12,4361.54,911.598)"><stop offset="0" style="stop-color:rgb(150,225,170);stop-opacity:1"/><stop offset="1" style="stop-color:rgb(0,149,217);stop-opacity:1"/></linearGradient>
    </defs>
</svg>
