<?xml version="1.0" encoding="UTF-8"?><svg id="b" xmlns="http://www.w3.org/2000/svg" width="283.628" height="298.94" viewBox="0 0 283.628 298.94"><defs><style>.f{fill:#211715;}.g{fill:#fff;}.h{fill:#645d5c;}</style></defs><g id="c"><g id="d"><path class="g" d="M2.755,296.16c2.547-5.272,4.715-10.731,7.642-15.816,2.592-4.502,7.367-15.299,17.094-23.923,5.153-4.569,17.814-13.829,37.114-22.816,4.31-2.007,9.294-4.412,14.187-6.602,18.071,12.518,40.52,19.447,63.03,19.438,22.49-.01,44.914-6.946,62.964-19.458,4.907,2.196,9.909,4.609,14.233,6.623,19.299,8.987,31.961,18.247,37.114,22.816,9.727,8.625,14.503,19.422,17.094,23.923,2.928,5.085,5.095,10.544,7.642,15.816H2.755Z"/><path class="g" d="M212.341,115.054c2.142-1.933,5.317-2.868,8.286-2.424,2.969.444,5.672,2.234,7.03,4.674.96,1.711,1.27,3.66,1.447,5.561.65,7.494-.827,15.131-4.224,21.96-1.654,3.327-3.811,6.512-6.809,8.936-2.303,1.837-5.122,3.199-8.118,3.659,0,0-.502.077-1.39.216-.666,2.493-1.415,4.593-1.782,5.708-2.264,6.145-14.495,26.775-30.155,35.616.245,2.849.632,5.699,1.125,8.513.807,4.63.561,8.752,6.963,11.067.316.105,10.137,4.77,15.627,7.366,0,0,3.193,1.414,5.498,2.442-4.879,9.755-25.455,31.64-62.139,31.64-40.376,0-62.483-22.762-65.407-31.603,1.963-.963,8.374-3.794,8.374-3.794,6.016-2.754,12.891-5.963,13.136-6.051,6.419-2.315,6.156-6.437,6.98-11.067.552-3.187.959-6.084,1.204-9.28-5.815-3.463-11.221-8.249-16.158-14.158-7.083-8.477-11.08-17.908-13.427-26.211-1.648-.251-2.646-.404-2.646-.404-2.996-.46-5.815-1.822-8.118-3.659-2.998-2.424-5.155-5.609-6.809-8.936-3.397-6.829-4.874-14.466-4.224-21.96.177-1.901.487-3.85,1.447-5.561,1.359-2.44,4.062-4.23,7.03-4.674,2.969-.444,6.144.491,8.286,2.424,0,0,.164-54.612,70.057-54.612,71.712,0,68.917,54.612,68.917,54.612Z"/><path class="h" d="M114.121,5.147c-12.355,2.762-24.547,8.402-34.827,18.748,0,0,4.191,2.226,7.979,4.238-11.389,6.124-20.393,19.531-24.408,31.322-4.484,13.167-5.815,31.916-.459,54.07.755-.323,1.557-.549,2.38-.672,3.253-.486,6.755.683,8.872,3.007,20.032-19.166,37.487-30.538,55.096-44.372.102,1.172,3.854,10.552,4.732,10.909,1.173.477,13.818-7.442,22.929-13.064.841.149,14.908,3.467,14.908,3.467,5.984,2.327,11.087,4.903,16.871,9.88,10.25,8.82,18.494,21.591,23.521,32.953,2.113-2.181,5.48-3.25,8.616-2.782.617.092,1.222.242,1.806.445,5.147-13.222,5.901-32.382-.6-50.561-4.572-12.782-15.969-26.175-24.064-29.906l-11.687-8.403c-9.957-13.639-25.01-20.829-46.252-21.478-8.158-.249-16.825.279-25.413,2.199Z"/><path class="f" d="M87.784,227.23c3.601-1.649,7.194-3.315,10.789-4.977.736-.34,1.594-.61,2.278-1.045-.732.299-.801.335-.207.106.35-.139.699-.284,1.044-.434.456-.199.907-.406,1.341-.652.764-.433,1.483-.962,2.14-1.542,2.248-1.983,3.164-4.838,3.617-7.705.653-4.132,1.354-8.25,1.693-12.424.122-1.509-1.374-2.8-2.8-2.8-1.617,0-2.677,1.286-2.8,2.8-.298,3.676-.917,7.296-1.493,10.935-.181,1.143-.389,2.291-.796,3.379.195-.521-.207.41-.263.51-.13.23-.27.457-.426.669.282-.381-.294.301-.373.378-.084.083-.658.565-.478.432-1.669,1.236-3.954,1.933-5.842,2.807-3.415,1.58-6.83,3.161-10.251,4.728-1.375.63-1.714,2.618-1.005,3.831.826,1.412,2.451,1.637,3.831,1.005h0Z"/><path class="f" d="M173.533,199.207c.34,3.815.981,7.577,1.553,11.361.405,2.679,1.094,5.195,2.881,7.305.959,1.132,2.244,2.041,3.571,2.691.507.249,1.032.465,1.556.675.139.056,1.041.428.305.107-.663-.29.12.064.292.144,2.029.938,4.047,1.901,6.068,2.857,2.957,1.399,5.914,2.801,8.871,4.2,1.366.646,3.021.38,3.831-1.005.712-1.218.369-3.182-1.005-3.831-5.183-2.451-10.322-5.039-15.572-7.344-1.497-.657-2.777-1.157-3.777-2.244-.215-.256-.241-.28-.077-.071-.103-.144-.201-.292-.293-.443-.181-.296-.346-.605-.483-.924.223.521-.131-.455-.16-.554-.1-.339-.183-.682-.258-1.027-.842-3.89-1.353-7.937-1.705-11.896-.134-1.506-1.191-2.8-2.8-2.8-1.411,0-2.935,1.285-2.8,2.8h0Z"/><path class="f" d="M206.751,149.933c-.094,3.089-.828,6.105-1.717,9.053-.33,1.094-.692,2.176-1.055,3.259-.09.267-.177.534-.276.797-.044.118-.099.233-.14.352-.16.471.309-.682.039-.094-1.361,2.967-2.957,5.805-4.697,8.566-5.008,7.945-10.963,15.351-18.507,21.251-3.997,3.126-8.613,5.719-13.628,6.863-3.512.801-2.026,6.202,1.489,5.4,10.317-2.354,18.956-9.827,25.75-17.604,5.53-6.33,10.713-13.482,14.212-21.165,2.337-5.131,3.958-11.049,4.13-16.678.11-3.605-5.49-3.601-5.6,0h0Z"/><path class="f" d="M73.176,148.855c1.756,10.155,5.007,20.141,10.362,28.991,6.01,9.932,14.78,18.907,25.123,24.316,5.456,2.853,11.301,4.609,17.422,5.236,1.507.154,2.8-1.397,2.8-2.8,0-1.642-1.289-2.645-2.8-2.8-9.846-1.008-18.861-5.981-26.07-12.65-8.101-7.495-14.137-16.778-17.75-27.201-1.645-4.745-2.832-9.634-3.687-14.579-.258-1.491-2.088-2.328-3.444-1.956-1.576.433-2.214,1.949-1.956,3.444h0Z"/><path class="f" d="M214.025,117.256c2.346-2.028,5.909-2.239,8.545-.688,3.118,1.835,3.464,5.39,3.568,8.726.251,8.034-1.98,16.667-6.873,23.146-2.577,3.412-6.113,5.791-10.352,6.502-1.492.25-2.327,2.094-1.956,3.444.435,1.582,1.947,2.207,3.444,1.956,10.329-1.732,16.49-11.484,19.376-20.762,1.514-4.869,2.195-10.075,1.923-15.17s-1.651-9.939-6.305-12.678c-4.902-2.885-11.085-2.107-15.331,1.563-1.145.989-1.015,2.945,0,3.96,1.135,1.135,2.812.992,3.96,0h0Z"/><path class="f" d="M75.051,113.296c-3.698-3.196-8.923-4.289-13.513-2.43-2.271.92-4.191,2.375-5.63,4.363-1.492,2.061-2.026,4.563-2.315,7.041-1.144,9.842,1.495,20.986,7.422,28.996,3.363,4.545,8.013,8.122,13.699,9.076,1.49.25,3.015-.392,3.444-1.956.369-1.342-.456-3.193-1.956-3.444-7.945-1.332-12.58-8.467-15.048-15.582-1.375-3.965-2.143-8.099-2.194-12.298-.04-3.337-.093-7.571,2.677-9.873,2.654-2.206,6.832-2.2,9.453.066,1.143.988,2.836,1.124,3.96,0,1.011-1.011,1.149-2.967,0-3.96h0Z"/><path class="f" d="M196.06,35.247c4.041,1.901,7.181,4.872,10.239,8.187,3.746,4.061,6.96,8.616,9.572,13.483,5.682,10.59,7.867,23.248,7.498,35.18-.188,6.085-1.134,12.116-3.02,17.911-1.118,3.435,4.288,4.907,5.4,1.489,3.844-11.815,4.065-24.721,1.86-36.877-1.17-6.453-3.064-12.843-5.977-18.732-2.644-5.346-6.07-10.322-9.964-14.833-3.562-4.127-7.789-8.295-12.782-10.644-1.368-.643-3.02-.382-3.831,1.005-.711,1.216-.37,3.184,1.005,3.831h0Z"/><path class="f" d="M157.302,65.5c-5.991,3.676-11.93,7.444-18.008,10.976-1.198.696-2.402,1.383-3.624,2.035-.46.245-.922.486-1.391.714-.182.089-.369.17-.551.26-.57.283.59-.168-.059.026-.493.147-.913.099-.011.104.434.002,1.6.626,1.659.685-.115-.114.398.682.07.053-.507-.971-1.01-1.93-1.456-2.933-.143-.321-.283-.643-.421-.966.172.401-.234-.566-.289-.701-.277-.679-.546-1.361-.805-2.048-.225-.596-.446-1.195-.645-1.801-.123-.374-.373-1.693-.216-.418-.311-2.522-2.783-3.547-4.78-1.98-13.522,10.612-27.635,20.443-40.79,31.524-4.227,3.561-8.359,7.234-12.392,11.015-2.635,2.47,1.331,6.424,3.96,3.96,13.082-12.264,27.355-22.99,41.677-33.737,3.862-2.898,7.706-5.82,11.505-8.801l-4.78-1.98c.322,2.61,1.596,5.15,2.614,7.546.841,1.978,1.88,5.47,4.26,6.081,2.193.563,4.809-1.288,6.624-2.289,3.187-1.757,6.299-3.653,9.404-5.549,3.766-2.299,7.51-4.635,11.271-6.942,3.067-1.882.257-6.727-2.826-4.835h0Z"/><path class="f" d="M170.579,75.5c6.919,2.705,13.039,6.522,18.401,11.679,5.436,5.227,10.023,11.269,13.94,17.7,2.17,3.562,4.127,7.249,5.869,11.038.632,1.374,2.617,1.715,3.831,1.005,1.411-.825,1.639-2.452,1.005-3.831-3.245-7.056-7.236-13.788-11.959-19.957-5.033-6.574-10.821-12.658-17.79-17.205-3.696-2.411-7.707-4.226-11.808-5.829-1.409-.551-3.073.605-3.444,1.956-.436,1.586.542,2.891,1.956,3.444h0Z"/><path class="f" d="M90.509,23.629c-12.382,4.619-21.573,15.844-27.193,27.457-5.501,11.368-7.437,24.08-7.179,36.631.182,8.887,1.469,17.751,3.53,26.39.836,3.504,6.237,2.02,5.4-1.489-5.785-24.249-5.333-51.984,11.538-71.89,4.172-4.922,9.341-9.442,15.393-11.7,1.416-.528,2.382-1.894,1.956-3.444-.374-1.361-2.02-2.487-3.444-1.956h0Z"/><path class="f" d="M188.203,23.013c-4.348-5.917-9.708-10.958-16.089-14.634-6.702-3.861-14.222-6.171-21.852-7.281C134.35-1.217,117.098.014,102.046,5.876c-9.273,3.611-17.688,8.993-24.732,16.039-2.551,2.552,1.407,6.513,3.96,3.96,11.244-11.246,26.22-17.587,41.824-19.453,14.414-1.724,30.517-1.134,43.578,5.391,6.653,3.324,12.353,8.123,16.691,14.027.894,1.217,2.429,1.825,3.831,1.005,1.201-.702,1.905-2.605,1.005-3.831h0Z"/><path class="f" d="M89.007,219.828c-8.379,2.941-16.369,6.931-24.397,10.696-8.167,3.831-16.163,7.974-23.801,12.786-4.967,3.129-9.837,6.491-14.323,10.288-5.937,5.026-10.661,11.343-14.524,18.06-1.532,2.664-2.945,5.395-4.439,8.08-2.699,4.852-4.783,10.012-7.186,15.01-.655,1.362-.374,3.025,1.005,3.831,1.225.716,3.173.364,3.831-1.005,2.07-4.305,3.901-8.726,6.095-12.971,1.349-2.611,2.803-5.181,4.211-7.761,3.659-6.7,7.963-13.004,13.663-18.146.765-.69,1.552-1.356,2.351-2.006.419-.341.841-.677,1.266-1.011.121-.095.242-.189.363-.283-.084.065-.429.328-.002.003.263-.2.525-.4.789-.598,2.448-1.837,4.968-3.579,7.533-5.25,7.157-4.664,14.661-8.793,22.363-12.482,8.747-4.19,17.528-8.625,26.691-11.841,1.426-.501,2.376-1.914,1.956-3.444-.38-1.383-2.011-2.459-3.444-1.956h0Z"/><path class="f" d="M193.128,225.228c8.048,2.825,15.705,6.688,23.418,10.3,7.994,3.743,15.814,7.822,23.291,12.522,2.78,1.747,5.513,3.571,8.174,5.496.537.389,1.072.782,1.603,1.179.233.175.465.351.698.527.129.097.256.196.384.294-.448-.344-.012-.009.08.063.834.657,1.663,1.321,2.472,2.008,5.657,4.803,10.07,10.724,13.735,17.14,1.548,2.71,3.007,5.475,4.506,8.212,2.593,4.734,4.626,9.745,6.963,14.605.655,1.363,2.601,1.724,3.831,1.005,1.393-.815,1.662-2.463,1.005-3.831-6.785-14.109-13.07-29.481-25.01-40.159-4.062-3.633-8.572-6.805-13.127-9.781-7.334-4.791-15.036-9.017-22.942-12.784-9.05-4.312-18.12-8.872-27.591-12.196-1.427-.501-3.063.569-3.444,1.956-.424,1.545.524,2.942,1.956,3.444h0Z"/><path class="f" d="M77.381,229.414c14.628,10.104,31.713,16.44,49.307,18.792,17.747,2.373,36.011.517,52.919-5.392,9.401-3.286,18.384-7.757,26.58-13.42,1.243-.859,1.809-2.456,1.005-3.831-.72-1.231-2.581-1.868-3.831-1.005-14.005,9.676-30.302,15.87-47.169,18.135-16.96,2.278-34.356.414-50.51-5.187-9.034-3.132-17.608-7.495-25.475-12.929-1.245-.86-3.108-.231-3.831,1.005-.813,1.39-.243,2.969,1.005,3.831h0Z"/><g id="e"><path class="f" d="M130.245,170.602c4.063,2.145,8.441,3.034,13.034,3.004s9.325-.904,13.02-3.783c1.194-.93.976-2.983,0-3.96-1.179-1.179-2.763-.933-3.96,0,.806-.628.034-.046-.172.086-.268.172-.545.331-.827.479-.164.086-1.081.493-.465.243-.375.152-.755.291-1.141.415-2.322.746-4.437.935-6.885.92-2.385-.014-4.314-.21-6.573-.885-.418-.125-.825-.273-1.237-.416-.135-.047-.265-.106-.399-.155.681.253.074.033-.053-.027-.512-.24-1.016-.492-1.516-.756-1.337-.706-3.045-.34-3.831,1.005-.74,1.265-.337,3.122,1.005,3.831h0Z"/><path class="f" d="M142.163,139.498c.583,2.223,1.143,4.482,1.477,6.758l-.1-.744c.04.312.057.619.025.933l.1-.744c-.022.145-.054.281-.103.419l.282-.669c-.043.098-.088.181-.148.27l.438-.567c-.069.084-.135.149-.221.218l.567-.438c-.171.11-.351.198-.535.283l.669-.282c-.295.123-.587.213-.902.263l.744-.1c-.285.034-.562.032-.847-.002l.744.1c-.319-.045-.633-.122-.952-.165-.782-.105-1.446-.134-2.158.282-.581.34-1.135,1.006-1.287,1.673-.163.717-.128,1.521.282,2.158.364.565.974,1.192,1.673,1.287.668.09,1.316.262,1.994.292,1.011.044,1.958-.259,2.864-.67,1.104-.501,1.96-1.457,2.254-2.647.248-1.004.138-1.92-.032-2.926-.368-2.177-.871-4.335-1.431-6.47-.372-1.417-2.018-2.417-3.444-1.956-1.458.472-2.354,1.926-1.956,3.444h0Z"/><path class="f" d="M105.79,120.537c-1.129,3.667-.393,12.104,6.555,12.822,9.183-.055,9.672-10.255,6.58-15.051-2.531-3.927-9.973-5.56-13.135,2.229Z"/><path class="f" d="M179.327,120.537c1.129,3.667.393,12.104-6.554,12.822-9.183-.055-9.672-10.255-6.581-15.051,2.531-3.926,9.973-5.559,13.135,2.229Z"/></g></g></g></svg>