<?xml version="1.0" encoding="UTF-8" standalone="no"?>
<!DOCTYPE svg PUBLIC "-//W3C//DTD SVG 1.1//EN" "http://www.w3.org/Graphics/SVG/1.1/DTD/svg11.dtd">
<svg width="100%" height="100%" viewBox="0 0 800 800" version="1.1" xmlns="http://www.w3.org/2000/svg" xmlns:xlink="http://www.w3.org/1999/xlink" xml:space="preserve" xmlns:serif="http://www.serif.com/" style="fill-rule:evenodd;clip-rule:evenodd;stroke-linejoin:round;stroke-miterlimit:2;">
    <g transform="matrix(1,0,0,1,-1159,-809)">
        <g transform="matrix(2.02015,0,0,2.02017,872.216,252.584)">
            <rect x="142.327" y="275.741" width="396.011" height="396.011" style="fill:none;"/>
            <g transform="matrix(0.495014,0,0,0.495007,24.1396,-100.595)">
                <rect x="344.09" y="921.603" width="589.333" height="477.333" style="fill:url(#_Linear1);"/>
            </g>
            <g transform="matrix(0.495014,0,0,0.495007,25.6434,-125.031)">
                <g transform="matrix(1,0,0,0.768025,-1.70458,280.116)">
                    <rect x="429.423" y="997.603" width="416" height="425.333" style="fill:white;"/>
                </g>
                <g transform="matrix(1,0,0,0.126959,-1.70458,844.312)">
                    <rect x="429.423" y="997.603" width="416" height="425.333" style="fill:white;"/>
                </g>
                <g transform="matrix(1,0,0,0.126959,-1.70458,1267.65)">
                    <rect x="429.423" y="997.603" width="416" height="425.333" style="fill:white;"/>
                </g>
            </g>
            <g transform="matrix(0.495014,0,0,0.495007,25.4596,-125.031)">
                <g transform="matrix(1,0,0,1,0,-5.91666)">
                    <g transform="matrix(1,0,0,1,1,2.83332)">
                        <path d="M408.423,1010.05C408.423,1003.38 403.009,997.967 396.34,997.967L372.173,997.967C365.504,997.967 360.09,1003.38 360.09,1010.05L360.09,1034.22C360.09,1040.89 365.504,1046.3 372.173,1046.3L396.34,1046.3C403.009,1046.3 408.423,1040.89 408.423,1034.22L408.423,1010.05Z" style="fill:white;"/>
                    </g>
                    <g transform="matrix(1,0,0,1,1,79.0667)">
                        <path d="M408.423,1010.05C408.423,1003.38 403.009,997.967 396.34,997.967L372.173,997.967C365.504,997.967 360.09,1003.38 360.09,1010.05L360.09,1034.22C360.09,1040.89 365.504,1046.3 372.173,1046.3L396.34,1046.3C403.009,1046.3 408.423,1040.89 408.423,1034.22L408.423,1010.05Z" style="fill:white;"/>
                    </g>
                    <g transform="matrix(1,0,0,1,1,155.3)">
                        <path d="M408.423,1010.05C408.423,1003.38 403.009,997.967 396.34,997.967L372.173,997.967C365.504,997.967 360.09,1003.38 360.09,1010.05L360.09,1034.22C360.09,1040.89 365.504,1046.3 372.173,1046.3L396.34,1046.3C403.009,1046.3 408.423,1040.89 408.423,1034.22L408.423,1010.05Z" style="fill:white;"/>
                    </g>
                    <g transform="matrix(1,0,0,1,1,231.533)">
                        <path d="M408.423,1010.05C408.423,1003.38 403.009,997.967 396.34,997.967L372.173,997.967C365.504,997.967 360.09,1003.38 360.09,1010.05L360.09,1034.22C360.09,1040.89 365.504,1046.3 372.173,1046.3L396.34,1046.3C403.009,1046.3 408.423,1040.89 408.423,1034.22L408.423,1010.05Z" style="fill:white;"/>
                    </g>
                    <g transform="matrix(1,0,0,1,1,307.767)">
                        <path d="M408.423,1010.05C408.423,1003.38 403.009,997.967 396.34,997.967L372.173,997.967C365.504,997.967 360.09,1003.38 360.09,1010.05L360.09,1034.22C360.09,1040.89 365.504,1046.3 372.173,1046.3L396.34,1046.3C403.009,1046.3 408.423,1040.89 408.423,1034.22L408.423,1010.05Z" style="fill:white;"/>
                    </g>
                    <g transform="matrix(1,0,0,1,1,384)">
                        <path d="M408.423,1010.05C408.423,1003.38 403.009,997.967 396.34,997.967L372.173,997.967C365.504,997.967 360.09,1003.38 360.09,1010.05L360.09,1034.22C360.09,1040.89 365.504,1046.3 372.173,1046.3L396.34,1046.3C403.009,1046.3 408.423,1040.89 408.423,1034.22L408.423,1010.05Z" style="fill:white;"/>
                    </g>
                </g>
                <g transform="matrix(1,0,0,1,501.667,-5.91666)">
                    <g transform="matrix(1,0,0,1,1,2.83332)">
                        <path d="M408.423,1010.05C408.423,1003.38 403.009,997.967 396.34,997.967L372.173,997.967C365.504,997.967 360.09,1003.38 360.09,1010.05L360.09,1034.22C360.09,1040.89 365.504,1046.3 372.173,1046.3L396.34,1046.3C403.009,1046.3 408.423,1040.89 408.423,1034.22L408.423,1010.05Z" style="fill:white;"/>
                    </g>
                    <g transform="matrix(1,0,0,1,1,79.0667)">
                        <path d="M408.423,1010.05C408.423,1003.38 403.009,997.967 396.34,997.967L372.173,997.967C365.504,997.967 360.09,1003.38 360.09,1010.05L360.09,1034.22C360.09,1040.89 365.504,1046.3 372.173,1046.3L396.34,1046.3C403.009,1046.3 408.423,1040.89 408.423,1034.22L408.423,1010.05Z" style="fill:white;"/>
                    </g>
                    <g transform="matrix(1,0,0,1,1,155.3)">
                        <path d="M408.423,1010.05C408.423,1003.38 403.009,997.967 396.34,997.967L372.173,997.967C365.504,997.967 360.09,1003.38 360.09,1010.05L360.09,1034.22C360.09,1040.89 365.504,1046.3 372.173,1046.3L396.34,1046.3C403.009,1046.3 408.423,1040.89 408.423,1034.22L408.423,1010.05Z" style="fill:white;"/>
                    </g>
                    <g transform="matrix(1,0,0,1,1,231.533)">
                        <path d="M408.423,1010.05C408.423,1003.38 403.009,997.967 396.34,997.967L372.173,997.967C365.504,997.967 360.09,1003.38 360.09,1010.05L360.09,1034.22C360.09,1040.89 365.504,1046.3 372.173,1046.3L396.34,1046.3C403.009,1046.3 408.423,1040.89 408.423,1034.22L408.423,1010.05Z" style="fill:white;"/>
                    </g>
                    <g transform="matrix(1,0,0,1,1,307.767)">
                        <path d="M408.423,1010.05C408.423,1003.38 403.009,997.967 396.34,997.967L372.173,997.967C365.504,997.967 360.09,1003.38 360.09,1010.05L360.09,1034.22C360.09,1040.89 365.504,1046.3 372.173,1046.3L396.34,1046.3C403.009,1046.3 408.423,1040.89 408.423,1034.22L408.423,1010.05Z" style="fill:white;"/>
                    </g>
                    <g transform="matrix(1,0,0,1,1,384)">
                        <path d="M408.423,1010.05C408.423,1003.38 403.009,997.967 396.34,997.967L372.173,997.967C365.504,997.967 360.09,1003.38 360.09,1010.05L360.09,1034.22C360.09,1040.89 365.504,1046.3 372.173,1046.3L396.34,1046.3C403.009,1046.3 408.423,1040.89 408.423,1034.22L408.423,1010.05Z" style="fill:white;"/>
                    </g>
                </g>
            </g>
            <g transform="matrix(0.145418,0,0,0.145416,-293.915,296.263)">
                <circle cx="4361.54" cy="1220.52" r="308.919" style="fill:url(#_Linear2);"/>
            </g>
            <g transform="matrix(3.56271e-17,0.636806,-0.495014,-7.8714e-18,918.154,259.659)">
                <path d="M336.189,1118.88L374.589,1195.68L297.789,1195.68L336.189,1118.88Z" style="fill:white;"/>
            </g>
        </g>
    </g>
    <defs>
        <linearGradient id="_Linear1" x1="0" y1="0" x2="1" y2="0" gradientUnits="userSpaceOnUse" gradientTransform="matrix(3.4384e-12,477.333,-589.333,2.78495e-12,638.757,921.603)"><stop offset="0" style="stop-color:rgb(74,51,142);stop-opacity:1"/><stop offset="1" style="stop-color:rgb(218,158,210);stop-opacity:1"/></linearGradient>
        <linearGradient id="_Linear2" x1="0" y1="0" x2="1" y2="0" gradientUnits="userSpaceOnUse" gradientTransform="matrix(1311.98,0,0,1311.98,3358.48,1220.52)"><stop offset="0" style="stop-color:rgb(252,204,161);stop-opacity:1"/><stop offset="1" style="stop-color:rgb(223,100,78);stop-opacity:1"/></linearGradient>
    </defs>
</svg>
