<?xml version="1.0" encoding="iso-8859-1"?>
<!-- Generator: Adobe Illustrator 15.0.0, SVG Export Plug-In . SVG Version: 6.00 Build 0)  -->
<!DOCTYPE svg PUBLIC "-//W3C//DTD SVG 1.1//EN" "http://www.w3.org/Graphics/SVG/1.1/DTD/svg11.dtd">
<svg version="1.1" id="&#x30EC;&#x30A4;&#x30E4;&#x30FC;_1"
	 xmlns="http://www.w3.org/2000/svg" xmlns:xlink="http://www.w3.org/1999/xlink" x="0px" y="0px" width="141.732px"
	 height="141.731px" viewBox="0 0 141.732 141.731" style="enable-background:new 0 0 141.732 141.731;" xml:space="preserve">
<g>
	<path style="fill-rule:evenodd;clip-rule:evenodd;fill:#4B749C;" d="M43.923,62.509c2.711,5.311,7.718,11.569,16.942,15.899
		c0.726,0.257,4.664,1.801,2.893-2.143c-0.073,0.038-0.848-1.297-1.742-3.366c-4.574-2.897-8.297-6.485-11.082-9.676
		C48.946,62.945,46.468,62.658,43.923,62.509z"/>
	<path style="fill-rule:evenodd;clip-rule:evenodd;fill:#537EAA;" d="M90.99,41.802c-4.95-8.652,2.557-15.236,4.195-15.612
		c3.355-2.134,1.3-4.225-0.309-4.46c-15.429-2.245-26.865,9.311-29.145,11.818c-1.576-0.29-2.497-0.419-2.551-0.455
		c-49.366-4.319-48.5,22.38-48.5,22.38l0.084,0.143c-0.395,1.338-0.915,2.803-1.573,4.138c-4.761,3.797-8.696,8.076-6.86,10.846
		l-0.002-0.035c0.035,0.079,0.273,0.36,1.514,0.105c-1.283,0.889-0.487,1.216-0.365,1.761c0.704,1.743,9.96-2.838,16.73-6.481
		c2.949,0.073,6.226-1.088,8.688-2.221c4.415-1.747,12.875-0.958,18.039-0.235c5.627,6.451,15.104,14.529,27.672,15.239
		c0.78-0.033,5.059-0.073,1.888-3.12c-0.098,0.119-4.49-3.845-7.884-8.669c29.784,7.055,39.956,22.981,39.538,22.946
		c1.501,2.61,2.828,4.498,3.99,5.836c-3.451,2.265-14.026,10.343-13.395,23.88c0,0,0.926,2.448,2.971-1.925
		c0.105-0.046,4.568-5.403,11.033-6.729c2.455-1.319,2.954-4.044,2.96-3.995c0.126,2.592,1.803,3.545,2.36,3.792
		c3.134,0.39,6.354,2.261,10.094,5.094c0.014-0.038,2.656,5.592,3.51,0.295c-0.035-0.024,2.784-12.782-12.146-21.76
		C124.945,65.396,107.488,49.94,90.99,41.802z"/>
	<g>
		<path style="fill-rule:evenodd;clip-rule:evenodd;fill:#FFFFFF;" d="M36.243,52.676c0.043-0.017,0.791,0.148,1.801-0.038
			c0.103-0.008,1.251-0.214,1.95-0.896c0.022-0.014,0.347-0.352-0.149-0.683c-1.137-0.144-2.091-0.032-2.188,0
			c-0.991,0.233-1.517,0.872-1.563,0.877C35.923,52.137,36.004,52.559,36.243,52.676z"/>
		<path style="fill-rule:evenodd;clip-rule:evenodd;fill:#4B749C;" d="M35.132,51.018c0,0,1.936-1.941,4.815-1.129
			C40.021,49.848,36.662,47.273,35.132,51.018z"/>
		<path style="fill-rule:evenodd;clip-rule:evenodd;fill:#4B749C;" d="M35.977,53.675c0,0,2.318,1.165,4.942-0.98
			C41.003,52.703,38.628,56.201,35.977,53.675z"/>
		<path style="fill-rule:evenodd;clip-rule:evenodd;fill:#666666;" d="M36.96,52.838c0.263,0.057,0.604,0.081,1.021,0.005
			c0.082-0.008,0.777-0.163,1.395-0.549c0.106-0.236,0.139-0.499,0.084-0.758c-0.057-0.263-0.197-0.485-0.39-0.656
			c-0.715-0.105-1.408,0.033-1.484,0.057c-0.409,0.097-0.709,0.254-0.929,0.412c-0.122,0.244-0.168,0.52-0.114,0.796
			C36.6,52.424,36.749,52.662,36.96,52.838z"/>
	</g>
	<path style="fill-rule:evenodd;clip-rule:evenodd;fill:#94AFCB;" d="M114.784,94.01c-3.139-24.877-40.796-32.993-45.708-33.949
		c0.625,2.267,1.974,4.666,3.534,6.884c29.784,7.055,39.956,22.981,39.538,22.946C113.096,91.537,113.971,92.896,114.784,94.01z
		 M45.832,56.735c-8.55-1.906-7.97,1.877-11.964,0.555c-3.047-0.777-4.136,0.547-4.136,0.547s-10.496,6.903-10.48,6.716
		c-6.87,4.636-10.902,5.817-12.872,6.077c0.117,0.103,0.466,0.247,1.462,0.041c-1.283,0.889-0.487,1.216-0.365,1.761
		c0.704,1.743,9.96-2.838,16.73-6.481c2.949,0.073,6.226-1.088,8.688-2.221c4.415-1.747,12.875-0.958,18.039-0.235
		C48.483,60.687,46.761,58.187,45.832,56.735z"/>
	<path style="fill-rule:evenodd;clip-rule:evenodd;fill:#4B749C;" d="M7.512,70.912c2.638-0.487,5.232-1.915,5.178-1.977
		c10.906-6.164,16.165-9.852,17.297-10.794c1.972-1.525,4.019-0.707,4.027-0.777c-2.551-1.901-4.777,0.354-4.777,0.354
		s-6.505,4.485-17.045,10.667c-3.017,1.603-4.975,1.793-6.072,1.839c0.06,0.13,0.13,0.254,0.211,0.376l-0.002-0.035
		C6.364,70.644,7.607,70.842,7.512,70.912z"/>
</g>
</svg>
