<?xml version="1.0" encoding="UTF-8"?> <!-- Generator: Adobe Illustrator 23.1.1, SVG Export Plug-In . SVG Version: 6.00 Build 0) --> <svg xmlns="http://www.w3.org/2000/svg" xmlns:xlink="http://www.w3.org/1999/xlink" version="1.1" id="icon" x="0px" y="0px" viewBox="0 0 1000 1000" style="enable-background:new 0 0 1000 1000;" xml:space="preserve"> <path d="M469.4,498.5l56.4-56.4l28.3,28.3l-56.4,56.4L469.4,498.5z M835.5,471.8c-11.5,11.5-22.2,9.1-35.8,2.7 c-30.2,18.8-70.3,27.7-116.3,25.6L301.9,823.8l-46.4-46.4c-7.7,32-28.8,50.8-78.2,63.9c-43,11.4-61.6,35.4-64.6,82.2l-40,0 c0.2-60,34.8-104.2,96.8-117.8c23.4-5.1,58.4-26.4,55.3-59.1l-52.4-52.4l323.7-381.5c-2.1-46,6.8-86.1,25.6-116.3 c-6.4-13.6-8.9-24.3,2.7-35.8l58-58c11.5-11.5,22-12.9,37.4-4c30.2-20.7,64.4-32.2,99-33c51.9-1.1,102.6,21.5,146.4,65.3 c43.8,43.8,66.4,94.5,65.3,146.4c-0.8,34.7-12.3,68.8-33,99c8.8,15.4,7.4,26-4,37.4L835.5,471.8z M649.3,127.1l219.7,219.7 c13.5-22,21-46.1,21.5-70.4c0.9-40.8-17.7-81.3-53.6-117.3c-35.9-35.9-76.5-54.5-117.3-53.6C695.5,106.2,671.3,113.6,649.3,127.1z M648.5,477L519.2,347.7L226.8,692.1l77.4,77.4L648.5,477z M769.7,445.5l-219-219c-11.1,22.3-16.2,51.1-14.6,84.4l149.3,149.3 C718.6,461.7,747.4,456.6,769.7,445.5z M814.4,436.4l45.3-45.3L605.1,136.6l-45.3,45.3L814.4,436.4z"></path> </svg> 